<mxfile host="app.diagrams.net" agent="Mozilla/5.0 (Macintosh; Intel Mac OS X 10_15_7) AppleWebKit/537.36 (KHTML, like Gecko) Chrome/138.0.0.0 Safari/537.36" version="27.2.0">
  <diagram name="페이지-1" id="RuTvgAe05luTqqJp8XIn">
    <mxGraphModel dx="1426" dy="1935" grid="0" gridSize="10" guides="1" tooltips="1" connect="1" arrows="1" fold="1" page="1" pageScale="1" pageWidth="827" pageHeight="1169" background="light-dark(#ffffff, #f5f4f4)" math="0" shadow="0">
      <root>
        <mxCell id="0" />
        <mxCell id="1" parent="0" />
        <mxCell id="ZPLwYKQgncl39OfeO65Y-1" value="" style="sketch=0;points=[[0,0,0],[0.25,0,0],[0.5,0,0],[0.75,0,0],[1,0,0],[0,1,0],[0.25,1,0],[0.5,1,0],[0.75,1,0],[1,1,0],[0,0.25,0],[0,0.5,0],[0,0.75,0],[1,0.25,0],[1,0.5,0],[1,0.75,0]];outlineConnect=0;dashed=0;verticalLabelPosition=bottom;verticalAlign=top;align=center;html=1;fontSize=12;fontStyle=0;aspect=fixed;shape=mxgraph.aws4.resourceIcon;resIcon=mxgraph.aws4.bedrock;labelBackgroundColor=none;fillStyle=auto;fillColor=none;strokeColor=light-dark(#000000,#000000);fontColor=light-dark(#000000,#000000);" vertex="1" parent="1">
          <mxGeometry x="251" y="-878" width="78" height="78" as="geometry" />
        </mxCell>
        <mxCell id="ZPLwYKQgncl39OfeO65Y-2" value="&lt;h3&gt;FinOps Supervisor Agent&lt;/h3&gt;" style="whiteSpace=wrap;html=1;labelBackgroundColor=none;fillStyle=auto;fillColor=none;strokeColor=none;fontColor=light-dark(#000000,#000000);spacing=7;" vertex="1" parent="1">
          <mxGeometry x="238" y="-792" width="120" height="60" as="geometry" />
        </mxCell>
      </root>
    </mxGraphModel>
  </diagram>
</mxfile>
